<svg xmlns="http://www.w3.org/2000/svg" viewBox="0 0 48 48" fill="none">
  <rect width="48" height="48" rx="8" fill="#CC2030"/>

  <!-- Subtle tribal/gear decoration -->
  <g opacity="0.15">
    <circle cx="10" cy="24" r="12" stroke="#000" stroke-width="2" fill="none"/>
    <circle cx="10" cy="24" r="4" fill="#000"/>
    <path d="M18 14 Q26 18 22 24 Q19 30 26 34" stroke="#000" stroke-width="2" fill="none" stroke-linecap="round"/>
  </g>

  <!-- K -->
  <g transform="translate(8, 10)">
    <path d="M0 0 L5 0 L5 10 L14 0 L20 0 L10 12 L21 28 L15 28 L5 14 L5 28 L0 28 Z" fill="#FFF"/>
  </g>

  <!-- C with angular notch -->
  <g transform="translate(28, 10)">
    <path d="M14 0 L18 0 L18 8 L14 8 L14 4 L6 4 L3 8 L3 20 L6 24 L14 24 L14 20 L18 20 L18 28 L14 28 L4 28 Q0 28 0 22 L0 6 Q0 0 4 0 Z" fill="#FFF"/>
    <path d="M15 8 L19 8 L19 11 L17 14 L19 17 L19 20 L15 20 L15 17 L16.5 14 L15 11 Z" fill="#CC2030"/>
  </g>
</svg>